# xmcd
#
# Track frame offsets: 
#        150
#        12510
#        26301
#        41069
#        56265
#        68376
#        89511
#        106893
#        124871
#        143966
#        157697
#        172801
#        183399
#        198278
#        214194
#        227834
#        242929
#        254736
#        267864
#        279384
#
# Disc length: 3955 seconds
#
# Revision: 0
# Processed by: cddbd v1.5.2PL0 Copyright (c) Steve Scherf et al.
# Submitted via: ExactAudioCopy v1.1
#
DISCID=120f7114
DTITLE=Various Artist - De Pré Historie - De Jaren '70 - De Ultieme 10 CD Col
DTITLE=lectie - 1974
DYEAR=2018
DGENRE=Top 40
TTITLE0=Abba - Waterloo
TTITLE1=The Rubettes - Juke Box Jive
TTITLE2=Carl Douglas - Kung Fu Fighting
TTITLE3=Sweet Sensation - Sad Sweet Dreamer
TTITLE4=Charlie Rich - The Most Beautiful Girl
TTITLE5=Lynyrd Skynyrd - Sweet Home Alabama
TTITLE6=Bachman - Turner Overdrive - You Ain't Seen Nothin' Yet
TTITLE7=Billy Swan - I Can Help
TTITLE8=Ivan Heylen - De Wilde Boerndochtere
TTITLE9=Sparks - This Town Ain't Big Enough For Both Of Us
TTITLE10=John Denver - Thank God I'm A Country Boy
TTITLE11=Big Bill - Ene Mee Hesp
TTITLE12=Elvis Presley - My Boy
TTITLE13=The Love Unlimited Orchestra - Love's Theme
TTITLE14=The Hues Corporation - Rock The Boat
TTITLE15=Ace - How Long
TTITLE16=The Three Degrees - Year Of Decision
TTITLE17=Diana Ross and Marvin Gaye - You Are Everything
TTITLE18=Paul Anka - (You're) Having My Baby
TTITLE19=Elton John - Candle In The Wind
EXTD=
EXTT0=
EXTT1=
EXTT2=
EXTT3=
EXTT4=
EXTT5=
EXTT6=
EXTT7=
EXTT8=
EXTT9=
EXTT10=
EXTT11=
EXTT12=
EXTT13=
EXTT14=
EXTT15=
EXTT16=
EXTT17=
EXTT18=
EXTT19=
PLAYORDER=
